<svg xmlns="http://www.w3.org/2000/svg" xmlns:xlink="http://www.w3.org/1999/xlink" width="945" zoomAndPan="magnify" viewBox="0 0 708.75 708.749996" height="945" preserveAspectRatio="xMidYMid meet" version="1.2"><defs><clipPath id="a146798ffc"><path d="M 0 0 L 708.5 0 L 708.5 708.5 L 0 708.5 Z M 0 0 "/></clipPath><clipPath id="cb16b5fe00"><path d="M 0 0 L 708.5 0 L 708.5 708.5 L 0 708.5 Z M 0 0 "/></clipPath><clipPath id="20e4a7d935"><path d="M 25.328125 25.328125 L 683.171875 25.328125 L 683.171875 683.171875 L 25.328125 683.171875 Z M 25.328125 25.328125 "/></clipPath><clipPath id="4ad5dcccb6"><path d="M 354.25 25.328125 C 172.589844 25.328125 25.328125 172.589844 25.328125 354.25 C 25.328125 535.910156 172.589844 683.171875 354.25 683.171875 C 535.910156 683.171875 683.171875 535.910156 683.171875 354.25 C 683.171875 172.589844 535.910156 25.328125 354.25 25.328125 Z M 354.25 25.328125 "/></clipPath><clipPath id="543f1479d3"><path d="M 0.328125 0.328125 L 658.171875 0.328125 L 658.171875 658.171875 L 0.328125 658.171875 Z M 0.328125 0.328125 "/></clipPath><clipPath id="6c6a7656fa"><path d="M 329.25 0.328125 C 147.589844 0.328125 0.328125 147.589844 0.328125 329.25 C 0.328125 510.910156 147.589844 658.171875 329.25 658.171875 C 510.910156 658.171875 658.171875 510.910156 658.171875 329.25 C 658.171875 147.589844 510.910156 0.328125 329.25 0.328125 Z M 329.25 0.328125 "/></clipPath><clipPath id="6100b77e44"><rect x="0" width="659" y="0" height="659"/></clipPath><clipPath id="127b86f87f"><path d="M 33.917969 33.917969 L 674.582031 33.917969 L 674.582031 674.582031 L 33.917969 674.582031 Z M 33.917969 33.917969 "/></clipPath><clipPath id="bb15d4e2ea"><path d="M 354.25 33.917969 C 177.335938 33.917969 33.917969 177.335938 33.917969 354.25 C 33.917969 531.164062 177.335938 674.582031 354.25 674.582031 C 531.164062 674.582031 674.582031 531.164062 674.582031 354.25 C 674.582031 177.335938 531.164062 33.917969 354.25 33.917969 Z M 354.25 33.917969 "/></clipPath><clipPath id="72c9896ddc"><path d="M 0.917969 0.917969 L 641.582031 0.917969 L 641.582031 641.582031 L 0.917969 641.582031 Z M 0.917969 0.917969 "/></clipPath><clipPath id="7eb830dd7e"><path d="M 321.25 0.917969 C 144.335938 0.917969 0.917969 144.335938 0.917969 321.25 C 0.917969 498.164062 144.335938 641.582031 321.25 641.582031 C 498.164062 641.582031 641.582031 498.164062 641.582031 321.25 C 641.582031 144.335938 498.164062 0.917969 321.25 0.917969 Z M 321.25 0.917969 "/></clipPath><clipPath id="90cf9a934e"><rect x="0" width="642" y="0" height="642"/></clipPath><clipPath id="8ac161f10e"><path d="M 84.734375 125.703125 L 611.113281 125.703125 L 611.113281 371.648438 L 84.734375 371.648438 Z M 84.734375 125.703125 "/></clipPath><clipPath id="50a38c160a"><rect x="0" width="709" y="0" height="709"/></clipPath></defs><g id="d279074c4c"><g clip-rule="nonzero" clip-path="url(#a146798ffc)"><path style=" stroke:none;fill-rule:nonzero;fill:#ffffff;fill-opacity:1;" d="M 0 0 L 708.5 0 L 708.5 708.5 L 0 708.5 Z M 0 0 "/><g transform="matrix(1,0,0,1,0,0.000000000000130927)"><g clip-path="url(#50a38c160a)"><g clip-rule="nonzero" clip-path="url(#cb16b5fe00)"><path style=" stroke:none;fill-rule:nonzero;fill:#ffffff;fill-opacity:1;" d="M 0 0 L 708.589844 0 L 708.589844 708.589844 L 0 708.589844 Z M 0 0 "/></g><g clip-rule="nonzero" clip-path="url(#20e4a7d935)"><g clip-rule="nonzero" clip-path="url(#4ad5dcccb6)"><g transform="matrix(1,0,0,1,25,25)"><g id="2020a570fd" clip-path="url(#6100b77e44)"><g clip-rule="nonzero" clip-path="url(#543f1479d3)"><g clip-rule="nonzero" clip-path="url(#6c6a7656fa)"><path style=" stroke:none;fill-rule:nonzero;fill:#000000;fill-opacity:1;" d="M 0.328125 0.328125 L 658.171875 0.328125 L 658.171875 658.171875 L 0.328125 658.171875 Z M 0.328125 0.328125 "/></g></g></g></g></g></g><g clip-rule="nonzero" clip-path="url(#127b86f87f)"><g clip-rule="nonzero" clip-path="url(#bb15d4e2ea)"><g transform="matrix(1,0,0,1,33,33)"><g id="6391a80013" clip-path="url(#90cf9a934e)"><g clip-rule="nonzero" clip-path="url(#72c9896ddc)"><g clip-rule="nonzero" clip-path="url(#7eb830dd7e)"><path style=" stroke:none;fill-rule:nonzero;fill:#ffffff;fill-opacity:1;" d="M 0.917969 0.917969 L 641.582031 0.917969 L 641.582031 641.582031 L 0.917969 641.582031 Z M 0.917969 0.917969 "/></g></g></g></g></g></g><g clip-rule="nonzero" clip-path="url(#8ac161f10e)"><path style=" stroke:none;fill-rule:nonzero;fill:#000000;fill-opacity:1;" d="M 307.136719 125.953125 C 306.886719 126.144531 306.609375 126.726562 306.496094 127.28125 C 306.21875 128.671875 305.386719 129.976562 304.472656 130.308594 C 303.945312 130.53125 303.308594 130.503906 302.199219 130.28125 C 300.730469 129.945312 300.671875 129.945312 300.0625 130.667969 C 299.035156 131.890625 299.121094 133.25 300.3125 134.996094 C 301.394531 136.550781 301.394531 137.410156 300.367188 138.242188 C 299.925781 138.605469 299.425781 138.882812 299.230469 138.882812 C 299.0625 138.882812 297.429688 139.851562 295.625 141.074219 C 292.710938 143.015625 290.9375 144.460938 287.082031 148.039062 C 284.808594 150.121094 278.066406 157.835938 278.066406 158.335938 C 278.066406 158.445312 277.902344 158.722656 277.707031 158.917969 C 276.875 159.75 272.4375 167.15625 270.96875 170.183594 C 270.078125 171.957031 268.886719 174.207031 268.304688 175.175781 C 267.722656 176.121094 267.25 177.0625 267.25 177.257812 C 267.25 177.453125 267.082031 177.839844 266.863281 178.148438 C 266.667969 178.453125 266.003906 179.617188 265.417969 180.726562 C 264.808594 181.835938 264.226562 182.976562 264.058594 183.226562 C 263.921875 183.503906 263.421875 184.335938 262.980469 185.082031 C 261.425781 187.71875 256.710938 193.742188 254.714844 195.65625 C 250.46875 199.679688 246.835938 201.984375 243.203125 202.980469 C 242.148438 203.257812 239.207031 203.675781 236.601562 203.925781 C 234.019531 204.148438 230.441406 204.480469 228.695312 204.648438 C 224.839844 205.007812 221.375 205.5625 219.125 206.171875 C 218.210938 206.449219 215.855469 207.003906 213.855469 207.449219 C 204.398438 209.503906 203.761719 209.640625 200.820312 210.472656 C 196.882812 211.582031 196.023438 211.304688 188.949219 206.699219 C 186.839844 205.339844 184.261719 203.675781 183.207031 202.980469 C 180.046875 200.929688 176.21875 198.238281 174.582031 196.90625 C 173.722656 196.210938 172.027344 194.878906 170.863281 193.964844 C 169.671875 193.046875 168.449219 192.046875 168.117188 191.714844 C 166.730469 190.355469 162.683594 187.164062 161.019531 186.164062 C 159.019531 184.945312 155.582031 183.390625 153.917969 182.976562 C 149.089844 181.726562 146.152344 181.671875 143.933594 182.753906 C 142.296875 183.585938 141.769531 184.363281 141.988281 185.554688 C 142.40625 187.527344 142.324219 188.082031 141.601562 188.46875 C 141.214844 188.664062 140.4375 188.828125 139.855469 188.828125 C 137.578125 188.828125 136.386719 190.273438 136.136719 193.214844 C 135.914062 195.960938 136.304688 196.683594 139.492188 199.207031 C 142.351562 201.484375 142.765625 201.984375 142.433594 202.871094 C 142.183594 203.480469 141.433594 203.871094 139.464844 204.371094 C 137.996094 204.730469 137.828125 205.257812 138.382812 207.53125 C 138.800781 209.167969 140.269531 212.359375 140.769531 212.695312 C 140.878906 212.777344 141.464844 213.636719 142.046875 214.636719 C 143.070312 216.355469 143.128906 216.550781 143.15625 218.9375 C 143.15625 220.324219 143.320312 221.878906 143.515625 222.40625 C 144.375 224.570312 145.347656 226.402344 146.429688 227.761719 C 147.066406 228.566406 147.757812 229.648438 147.980469 230.175781 C 148.398438 231.203125 148.480469 234.199219 148.121094 236.308594 C 147.675781 239.082031 148.257812 240.359375 152.640625 246.019531 C 153.140625 246.6875 153.613281 247.519531 153.695312 247.90625 C 154.054688 249.792969 154.417969 250.652344 155.191406 251.515625 C 155.636719 252.015625 156.023438 252.511719 156.023438 252.625 C 156.023438 252.707031 156.441406 253.234375 156.941406 253.761719 C 158.078125 255.011719 159.601562 255.703125 161.15625 255.703125 C 163.015625 255.703125 163.929688 256.675781 164.597656 259.3125 C 165.984375 264.75 171.003906 270.464844 178.019531 274.519531 C 179.433594 275.351562 180.933594 276.347656 181.347656 276.738281 C 182.152344 277.488281 182.152344 277.515625 181.988281 279.984375 C 181.460938 287.78125 181.460938 288.308594 181.960938 290 C 182.597656 292.277344 183.679688 293.859375 186.339844 296.410156 C 189.863281 299.796875 194.023438 302.542969 201.511719 306.402344 C 202.816406 307.066406 204.621094 308.039062 205.535156 308.566406 C 206.449219 309.09375 207.617188 309.730469 208.144531 310.007812 C 209.308594 310.5625 213.523438 314.558594 214.246094 315.753906 C 214.773438 316.613281 215.328125 319.082031 215.9375 323.246094 C 216.132812 324.464844 216.4375 326.019531 216.65625 326.714844 C 218.074219 331.484375 219.542969 339.144531 219.542969 341.78125 C 219.542969 343.363281 218.847656 344.027344 216.769531 344.472656 C 215.992188 344.640625 214.773438 345.082031 214.050781 345.472656 C 212.054688 346.5 209.28125 346.746094 199.710938 346.746094 C 190.863281 346.746094 171.972656 346.109375 165.59375 345.609375 C 163.625 345.445312 159.4375 345.136719 156.300781 344.917969 C 153.167969 344.695312 148.5625 344.304688 146.039062 344.085938 C 133.917969 343 127.316406 342.722656 113.726562 342.722656 C 101.105469 342.753906 99.886719 342.78125 96.667969 343.335938 C 92.453125 344.054688 89.679688 345.109375 87.597656 346.71875 C 84.964844 348.773438 84.074219 351.742188 85.433594 353.851562 C 85.878906 354.519531 86.015625 354.546875 87.488281 354.378906 C 88.347656 354.296875 89.929688 354.019531 90.980469 353.824219 C 99.109375 352.160156 105.875 351.796875 121.382812 352.242188 C 136.164062 352.6875 145.539062 353.628906 152.28125 355.433594 C 153.058594 355.65625 154.609375 356.015625 155.746094 356.292969 C 158.132812 356.847656 159.074219 357.347656 159.074219 358.042969 C 159.074219 358.292969 158.769531 359.125 158.410156 359.902344 C 157.132812 362.535156 155.746094 365.8125 155.746094 366.199219 C 155.746094 366.421875 155.609375 366.726562 155.46875 366.867188 C 155.304688 367.03125 155.082031 368.058594 155 369.140625 C 154.832031 371.082031 154.859375 371.113281 155.582031 371.445312 C 156.082031 371.695312 156.550781 371.722656 157.023438 371.527344 C 157.9375 371.195312 167.007812 362.566406 169.78125 359.402344 C 170.890625 358.152344 171.585938 357.957031 178.351562 357.292969 C 185.816406 356.515625 194.914062 356.15625 210.417969 355.960938 L 223.316406 355.820312 L 224.703125 356.488281 C 225.449219 356.875 227.113281 357.738281 228.417969 358.457031 C 231.21875 359.957031 233.160156 360.484375 236.878906 360.734375 C 238.402344 360.84375 241.207031 361.175781 243.117188 361.484375 C 245.03125 361.789062 247.640625 362.148438 248.945312 362.257812 C 250.246094 362.371094 251.632812 362.566406 252.023438 362.648438 C 252.492188 362.785156 252.855469 362.703125 253.078125 362.425781 C 253.382812 362.066406 253.019531 361.59375 250.773438 359.207031 C 249.304688 357.679688 248.113281 356.265625 248.113281 356.042969 C 248.113281 354.988281 248.472656 354.960938 261.203125 355.324219 C 277.207031 355.792969 312.820312 355.792969 334.375 355.324219 C 352.070312 354.960938 380.859375 355.042969 417.722656 355.601562 C 434.949219 355.878906 449.175781 355.683594 451.203125 355.183594 C 451.839844 355.015625 452.003906 355.101562 452.285156 355.710938 C 452.589844 356.347656 452.53125 356.515625 451.949219 357.097656 C 451.5625 357.488281 451.089844 358.125 450.894531 358.570312 C 450.703125 358.984375 450.339844 359.679688 450.148438 360.09375 C 449.925781 360.484375 449.757812 361.011719 449.757812 361.261719 C 449.757812 362.398438 452.199219 362.566406 456.167969 361.675781 C 457.609375 361.371094 459.714844 360.925781 460.855469 360.707031 C 461.992188 360.484375 463.65625 360.121094 464.515625 359.902344 C 465.402344 359.652344 466.789062 359.316406 467.566406 359.097656 C 468.371094 358.902344 469.839844 358.402344 470.839844 358.015625 C 471.835938 357.652344 473.140625 357.152344 473.75 356.960938 C 474.667969 356.625 479.882812 356.597656 503.542969 356.683594 C 530.113281 356.765625 532.332031 356.820312 533.359375 357.265625 C 534.46875 357.738281 538.40625 361.398438 541.597656 364.949219 C 544.066406 367.671875 546.089844 368.53125 547.199219 367.308594 C 548.113281 366.28125 547.53125 364.0625 545.203125 359.707031 C 543.703125 356.902344 543.398438 355.460938 544.285156 355.210938 C 545.839844 354.765625 548.253906 354.574219 556.683594 354.210938 C 560.511719 354.046875 565.3125 353.796875 567.363281 353.65625 C 572.523438 353.269531 594.378906 353.296875 602.3125 353.683594 C 608.246094 353.992188 608.914062 353.992188 609.71875 353.546875 C 610.964844 352.90625 611.242188 351.6875 610.910156 348.578125 C 610.605469 345.972656 610.246094 344.890625 609.578125 344.640625 C 608.664062 344.304688 598.871094 343.945312 585.394531 343.777344 C 571.46875 343.613281 564.671875 343.777344 548.226562 344.609375 C 543.871094 344.859375 538.628906 345.109375 536.574219 345.195312 C 534.523438 345.277344 529.585938 345.609375 525.621094 345.886719 C 513.914062 346.746094 509.226562 346.996094 500.683594 347.164062 C 492.058594 347.359375 487.121094 347.082031 484.652344 346.277344 C 481.378906 345.222656 481.40625 345.359375 482.765625 337.007812 C 483.070312 335.09375 483.402344 332.042969 483.875 326.601562 C 484.402344 320.71875 484.652344 319.691406 486.539062 315.753906 C 487.925781 312.867188 490.753906 309.757812 493.222656 308.371094 C 493.859375 308.011719 495.414062 307.09375 496.691406 306.316406 C 497.964844 305.542969 500.183594 304.292969 501.628906 303.570312 C 506.871094 300.960938 510.335938 298.382812 514.941406 293.71875 C 519.210938 289.390625 520.042969 287.144531 519.269531 281.789062 C 519.019531 280.039062 518.742188 278.207031 518.65625 277.738281 C 518.4375 276.570312 519.238281 275.710938 522.097656 274.15625 C 523.34375 273.464844 525.148438 272.355469 526.089844 271.660156 C 529.140625 269.441406 533.246094 265.386719 534.828125 263.058594 C 538.238281 258.007812 538.824219 257.0625 539.515625 255.730469 C 540.042969 254.675781 540.402344 254.289062 540.957031 254.179688 C 544.589844 253.484375 546.0625 252.761719 547.503906 251.042969 C 548.503906 249.847656 548.503906 249.792969 548.503906 247.242188 C 548.503906 245.796875 548.613281 244.328125 548.753906 243.964844 C 548.917969 243.578125 549.613281 242.664062 550.304688 241.914062 C 552.246094 239.914062 552.578125 238.945312 552.773438 234.671875 C 552.914062 231.785156 553.050781 230.730469 553.496094 229.898438 C 553.800781 229.316406 554.160156 228.761719 554.328125 228.648438 C 554.769531 228.371094 556.433594 225.679688 557.65625 223.238281 C 558.710938 221.15625 558.765625 220.878906 558.710938 218.855469 C 558.65625 216.414062 558.960938 215.523438 560.902344 212.804688 C 561.816406 211.5 563.121094 208.78125 563.34375 207.699219 C 563.453125 207.171875 563.785156 206.257812 564.0625 205.699219 C 564.367188 205.117188 564.589844 204.480469 564.589844 204.257812 C 564.589844 203.898438 562.539062 202.703125 561.871094 202.703125 C 561.707031 202.703125 561.371094 202.425781 561.152344 202.121094 C 560.625 201.371094 560.984375 200.566406 562.175781 199.707031 C 562.675781 199.375 563.648438 198.570312 564.367188 197.929688 C 565.503906 196.878906 565.726562 196.488281 566.199219 194.628906 C 566.503906 193.492188 566.699219 192.1875 566.613281 191.769531 C 566.394531 190.605469 565.089844 189.941406 563.035156 189.941406 C 560.566406 189.941406 560.429688 189.746094 560.347656 186.554688 C 560.289062 184.335938 560.207031 183.78125 559.734375 183.28125 C 558.347656 181.753906 555.546875 181.03125 553.496094 181.699219 C 552.800781 181.949219 551.804688 182.199219 551.277344 182.308594 C 548.863281 182.78125 544.8125 184.417969 541.707031 186.164062 C 539.738281 187.277344 535.1875 190.632812 533.691406 192.078125 C 531.140625 194.519531 520.488281 202.09375 516.882812 204.035156 C 516.21875 204.398438 514.746094 205.339844 513.664062 206.117188 C 506.230469 211.445312 506.535156 211.304688 503.597656 210.640625 C 502.429688 210.363281 501.042969 210.03125 500.519531 209.890625 C 499.992188 209.726562 498.105469 209.226562 496.355469 208.78125 C 494.609375 208.335938 492.585938 207.78125 491.863281 207.558594 C 491.144531 207.367188 489.644531 207.089844 488.535156 207.003906 C 487.425781 206.894531 485.707031 206.644531 484.707031 206.449219 C 483.710938 206.257812 480.546875 205.894531 477.636719 205.644531 C 464.710938 204.535156 461.851562 204.148438 457.804688 202.789062 C 455.277344 201.925781 454.363281 201.457031 451.8125 199.734375 C 446.375 196.074219 442.351562 191.214844 438.25 183.417969 C 437.359375 181.726562 434.835938 176.816406 432.617188 172.457031 C 430.398438 168.101562 428.375 164.214844 428.097656 163.800781 C 427.792969 163.410156 427.570312 162.96875 427.570312 162.800781 C 427.570312 162.328125 422.1875 154.503906 420.691406 152.8125 C 417.417969 149.09375 409.847656 142.019531 406.488281 139.574219 C 404.382812 138.023438 403.992188 137.632812 403.828125 136.773438 C 403.660156 135.828125 403.964844 134.96875 404.851562 134 C 405.683594 133.082031 405.960938 131.832031 405.464844 131.113281 C 405.101562 130.585938 404.824219 130.53125 403.214844 130.613281 L 401.359375 130.695312 L 401.21875 129.390625 C 400.914062 126.785156 399.277344 126.199219 397.476562 128.058594 C 395.8125 129.753906 394.8125 129.503906 393.507812 127.089844 C 392.480469 125.203125 391.898438 125.230469 390.789062 127.28125 C 389.902344 128.976562 389.183594 129.699219 388.40625 129.726562 C 387.601562 129.726562 386.601562 129.140625 386.214844 128.421875 C 385.769531 127.617188 385.050781 127.171875 384.523438 127.367188 C 384.078125 127.53125 382.636719 130.253906 382.636719 130.917969 C 382.636719 131.167969 382.359375 131.695312 381.996094 132.113281 C 381.082031 133.164062 380.113281 133.082031 379.003906 131.832031 L 378.113281 130.808594 L 377.644531 131.554688 C 377.367188 131.945312 377.0625 132.804688 376.976562 133.445312 C 376.867188 134.054688 376.394531 135.636719 375.921875 136.941406 C 374.34375 141.378906 373.761719 143.542969 373.761719 145.179688 C 373.761719 145.984375 373.980469 146.429688 374.785156 147.261719 C 375.785156 148.289062 375.785156 148.316406 375.453125 149.425781 C 375.285156 150.039062 374.316406 151.757812 373.316406 153.226562 C 370.375 157.667969 370.515625 158.222656 374.257812 156.78125 C 377.144531 155.671875 378.945312 155.503906 379.667969 156.308594 C 380.027344 156.695312 380.140625 157.390625 380.140625 159.332031 C 380.140625 162.746094 380.695312 164.382812 382.304688 165.828125 C 384.773438 167.992188 388.515625 168.046875 390.375 165.9375 C 391.152344 165.050781 391.234375 165.019531 391.648438 165.4375 C 392.011719 165.769531 392.066406 166.242188 391.957031 167.574219 C 391.871094 168.488281 391.734375 170.820312 391.648438 172.734375 C 391.039062 186.027344 389.347656 200.179688 387.765625 205.757812 C 387.296875 207.367188 386.714844 209.417969 385.519531 213.804688 C 384.742188 216.746094 384.578125 217.273438 383.746094 220.046875 C 383.191406 221.851562 382.746094 223.570312 382.082031 226.429688 C 381.941406 227.039062 381.832031 230.371094 381.804688 233.8125 C 381.804688 241.136719 382.21875 244.050781 384.050781 249.183594 C 387.460938 258.703125 392.261719 265.417969 399.554688 270.855469 C 400.996094 271.9375 402.996094 273.296875 403.964844 273.90625 C 404.9375 274.492188 406.046875 275.210938 406.460938 275.460938 C 407.238281 275.960938 407.792969 276.292969 409.816406 277.402344 C 410.511719 277.765625 411.59375 278.402344 412.230469 278.820312 C 412.898438 279.234375 413.480469 279.566406 413.5625 279.566406 C 413.617188 279.566406 414.644531 280.125 415.808594 280.816406 C 416.945312 281.511719 417.945312 282.066406 418 282.066406 C 418.054688 282.066406 418.667969 282.425781 419.332031 282.898438 C 420.023438 283.34375 420.664062 283.730469 420.773438 283.730469 C 420.886719 283.730469 421.441406 284.089844 422.023438 284.5625 C 422.605469 285.007812 423.160156 285.394531 423.242188 285.394531 C 423.851562 285.394531 429.566406 291.113281 430.898438 293.027344 C 433.671875 297.050781 435.253906 300.742188 438.277344 310.507812 C 439.609375 314.863281 439.96875 315.503906 442.410156 317.917969 C 443.65625 319.109375 444.542969 320.246094 444.65625 320.71875 C 444.792969 321.332031 444.433594 322.273438 442.992188 325.160156 C 439.71875 331.734375 438.554688 333.484375 435.140625 337.035156 C 432.089844 340.171875 430.675781 341.03125 428.011719 341.308594 C 426.960938 341.421875 425.210938 341.753906 424.128906 342.058594 C 420.886719 342.917969 419.859375 343.113281 416.503906 343.390625 C 412.34375 343.75 409.902344 344.195312 409.539062 344.640625 C 408.957031 345.359375 410.371094 345.722656 414.671875 345.914062 C 416.972656 346.027344 418.859375 346.136719 418.914062 346.136719 C 418.945312 346.164062 418.972656 346.414062 418.972656 346.71875 C 418.972656 347.082031 418.722656 347.332031 418.222656 347.441406 C 417.804688 347.550781 407.988281 347.523438 396.367188 347.386719 C 370.402344 347.082031 330.128906 347.082031 304.277344 347.414062 C 284.253906 347.636719 283.613281 347.609375 283.613281 346.582031 C 283.613281 345.886719 284.613281 345.609375 287 345.609375 C 291.214844 345.609375 293.574219 345.082031 291.324219 344.640625 C 290.828125 344.554688 289.660156 344.304688 288.746094 344.085938 C 287.832031 343.863281 285.222656 343.5 282.921875 343.25 C 277.929688 342.695312 276.179688 342.28125 274.101562 341.171875 C 268.054688 337.953125 264.421875 334.84375 261.3125 330.210938 C 259.261719 327.15625 256.433594 322.164062 256.265625 321.21875 C 256.042969 320.191406 256.292969 319.75 258.570312 317.390625 C 259.984375 315.890625 260.84375 314.671875 261.925781 312.535156 C 262.703125 310.953125 263.476562 309.175781 263.617188 308.566406 C 263.753906 307.957031 264.199219 306.59375 264.585938 305.542969 C 264.976562 304.488281 265.308594 303.40625 265.308594 303.15625 C 265.308594 301.574219 269.386719 293.109375 270.71875 291.917969 C 270.882812 291.75 271.382812 291.140625 271.828125 290.527344 C 272.742188 289.28125 275.765625 286.226562 276.097656 286.226562 C 276.210938 286.226562 276.625 285.976562 276.984375 285.644531 C 277.347656 285.3125 278.511719 284.480469 279.566406 283.757812 C 280.648438 283.066406 281.8125 282.261719 282.199219 282.011719 C 282.589844 281.734375 283.394531 281.261719 283.976562 280.957031 C 284.53125 280.652344 285.832031 279.847656 286.886719 279.179688 C 287.914062 278.515625 290.242188 277.183594 292.074219 276.238281 C 298.203125 273.019531 302.503906 269.910156 306.746094 265.582031 C 310.464844 261.808594 312.738281 258.453125 315.402344 252.957031 C 318.867188 245.824219 320.421875 237.863281 319.726562 230.871094 C 319.203125 225.457031 318.285156 221.324219 315.679688 212.277344 C 314.070312 206.753906 313.15625 201.011719 312.183594 190.355469 C 312.046875 188.828125 311.796875 186.332031 311.65625 184.804688 C 310.90625 177.839844 310.769531 176.148438 310.464844 171.292969 C 310.132812 165.769531 310.269531 164.6875 311.296875 164.6875 C 311.546875 164.6875 312.210938 165.078125 312.738281 165.546875 C 314.042969 166.742188 315.566406 167.242188 317.953125 167.242188 C 320.503906 167.214844 322.503906 166.574219 323.75 165.328125 C 325.25 163.828125 325.582031 162.746094 325.359375 160.25 C 325.136719 157.585938 325.46875 157.058594 327.714844 156.640625 C 330.242188 156.167969 330.738281 155.890625 331.074219 154.589844 C 331.40625 153.367188 331.015625 149.371094 330.519531 148.761719 C 330.378906 148.59375 330.183594 148.011719 330.074219 147.457031 C 329.90625 146.597656 329.992188 146.320312 330.738281 145.488281 C 332.210938 143.792969 331.878906 141.324219 329.492188 135.800781 L 329.046875 134.773438 L 328.242188 135.246094 C 327.46875 135.691406 327.4375 135.664062 326.746094 134.859375 C 326.300781 134.332031 326.082031 133.664062 326.050781 133.027344 C 326.050781 130.863281 324.636719 127.78125 323.667969 127.78125 C 323.113281 127.78125 322.695312 128.53125 322.503906 129.917969 C 322.195312 131.945312 321.558594 131.863281 319.480469 129.476562 C 317.34375 127.035156 315.984375 125.839844 315.316406 125.839844 C 315.039062 125.839844 314.125 126.535156 313.292969 127.394531 C 312.460938 128.226562 311.546875 129.058594 311.269531 129.199219 C 310.410156 129.667969 309.6875 129.171875 308.855469 127.503906 C 307.914062 125.617188 307.773438 125.507812 307.136719 125.953125 Z M 240.484375 306.484375 C 240.871094 306.902344 241.039062 307.734375 241.207031 309.84375 C 241.316406 311.367188 241.34375 312.8125 241.261719 313.035156 C 240.84375 314.144531 241.511719 315.390625 243.8125 317.804688 C 245.78125 319.859375 246.390625 320.71875 247.722656 323.410156 C 248.582031 325.160156 249.96875 327.769531 250.800781 329.238281 C 251.660156 330.679688 252.4375 332.125 252.578125 332.429688 C 252.714844 332.734375 253.078125 333.34375 253.382812 333.816406 C 253.6875 334.261719 254.1875 335.148438 254.519531 335.757812 C 255.183594 337.007812 259.234375 343.167969 259.539062 343.390625 C 259.648438 343.472656 259.871094 343.890625 260.039062 344.332031 C 260.289062 345 260.261719 345.222656 259.898438 345.582031 C 259.511719 345.972656 258.457031 346.027344 251.632812 345.941406 C 241.09375 345.832031 240.371094 345.777344 239.125 345.195312 C 237.710938 344.527344 233.496094 340.449219 231.746094 338.117188 C 228.140625 333.234375 224.425781 324.050781 224.398438 319.941406 C 224.398438 318.390625 224.535156 317.804688 225.007812 317 C 225.644531 316.003906 230.5 311.089844 232.300781 309.621094 C 232.828125 309.203125 233.410156 308.730469 233.550781 308.621094 C 233.714844 308.484375 234.769531 307.84375 235.90625 307.152344 C 238.265625 305.761719 239.652344 305.570312 240.484375 306.484375 Z M 463.15625 307.207031 C 463.65625 307.457031 464.542969 308.011719 465.152344 308.425781 C 465.761719 308.84375 467.761719 310.175781 469.589844 311.367188 C 474.167969 314.363281 476 316.363281 476.46875 318.886719 C 476.96875 321.523438 473.085938 333.039062 469.507812 339.503906 C 468.230469 341.835938 466.566406 344.054688 465.625 344.695312 C 463.90625 345.832031 445.320312 346.859375 442.160156 345.972656 C 441.4375 345.777344 441.742188 344.527344 442.964844 342.667969 C 443.492188 341.863281 443.933594 341.144531 443.933594 341.058594 C 443.933594 340.976562 444.820312 339.5625 445.929688 337.925781 C 448.761719 333.679688 452.089844 327.296875 453.117188 324.105469 C 453.585938 322.746094 454.28125 321.46875 455.5 319.886719 C 458.023438 316.585938 459.855469 312.476562 460.1875 309.316406 C 460.300781 308.453125 460.492188 307.511719 460.632812 307.234375 C 460.9375 306.652344 461.992188 306.625 463.15625 307.207031 Z M 463.15625 307.207031 "/></g><g style="fill:#000000;fill-opacity:1;"><g transform="translate(236.382978, 607.780014)"><path style="stroke:none" d="M 8.84375 -63.0625 L 52.1875 -63.0625 C 52.6875 -63.0625 53.117188 -62.90625 53.484375 -62.59375 C 53.859375 -62.28125 54.046875 -61.8125 54.046875 -61.1875 L 54.046875 -49.453125 C 54.046875 -49.054688 53.890625 -48.601562 53.578125 -48.09375 C 53.265625 -47.59375 52.800781 -47.34375 52.1875 -47.34375 L 26.515625 -47.34375 L 26.515625 -38.671875 L 44.015625 -38.671875 C 44.523438 -38.671875 44.960938 -38.539062 45.328125 -38.28125 C 45.703125 -38.03125 45.890625 -37.675781 45.890625 -37.21875 L 45.890625 -25.75 C 45.890625 -25.46875 45.734375 -25.140625 45.421875 -24.765625 C 45.109375 -24.398438 44.640625 -24.21875 44.015625 -24.21875 L 26.515625 -24.21875 L 26.515625 -15.984375 L 53.109375 -15.984375 C 53.617188 -15.984375 54.054688 -15.828125 54.421875 -15.515625 C 54.796875 -15.203125 54.984375 -14.734375 54.984375 -14.109375 L 54.984375 -2.125 C 54.984375 -1.445312 54.769531 -0.921875 54.34375 -0.546875 C 53.914062 -0.179688 53.394531 0 52.78125 0 L 8.84375 0 C 7.59375 0 6.96875 -0.625 6.96875 -1.875 L 6.96875 -61.1875 C 6.96875 -61.695312 7.132812 -62.132812 7.46875 -62.5 C 7.8125 -62.875 8.269531 -63.0625 8.84375 -63.0625 Z M 8.84375 -63.0625 "/></g></g><g style="fill:#000000;fill-opacity:1;"><g transform="translate(308.698459, 607.780014)"><path style="stroke:none" d="M 71.984375 -61.1875 L 77.765625 -1.875 C 77.765625 -0.625 77.164062 0 75.96875 0 L 59.65625 0 C 58.238281 0 57.503906 -0.625 57.453125 -1.875 L 55.0625 -26.59375 L 49.71875 -1.875 C 49.65625 -1.476562 49.441406 -1.066406 49.078125 -0.640625 C 48.710938 -0.210938 48.300781 0 47.84375 0 L 32.71875 0 C 32.320312 0 31.910156 -0.179688 31.484375 -0.546875 C 31.054688 -0.921875 30.816406 -1.363281 30.765625 -1.875 L 25.328125 -26.4375 L 23.03125 -1.875 C 22.976562 -0.625 22.269531 0 20.90625 0 L 4.59375 0 C 3.394531 0 2.796875 -0.625 2.796875 -1.875 L 8.578125 -61.1875 C 8.691406 -61.695312 8.929688 -62.132812 9.296875 -62.5 C 9.671875 -62.875 10.140625 -63.0625 10.703125 -63.0625 L 30.515625 -63.0625 C 31.703125 -63.0625 32.550781 -62.4375 33.0625 -61.1875 L 40.203125 -31.53125 L 47.5 -61.1875 C 47.84375 -62.4375 48.695312 -63.0625 50.0625 -63.0625 L 69.765625 -63.0625 C 70.390625 -63.0625 70.898438 -62.875 71.296875 -62.5 C 71.691406 -62.132812 71.921875 -61.695312 71.984375 -61.1875 Z M 71.984375 -61.1875 "/></g></g><g style="fill:#000000;fill-opacity:1;"><g transform="translate(403.872703, 607.780014)"><path style="stroke:none" d="M 44.53125 -61.1875 L 65.609375 -1.875 C 66.003906 -0.625 65.632812 0 64.5 0 L 48.1875 0 C 46.820312 0 45.882812 -0.625 45.375 -1.875 L 43.09375 -9.171875 L 24.90625 -9.171875 L 22.609375 -1.875 C 22.097656 -0.625 21.160156 0 19.796875 0 L 3.5625 0 C 2.375 0 1.976562 -0.625 2.375 -1.875 L 23.453125 -61.1875 C 23.566406 -61.644531 23.835938 -62.070312 24.265625 -62.46875 C 24.691406 -62.863281 25.128906 -63.0625 25.578125 -63.0625 L 42.40625 -63.0625 C 42.863281 -63.0625 43.300781 -62.863281 43.71875 -62.46875 C 44.144531 -62.070312 44.414062 -61.644531 44.53125 -61.1875 Z M 34 -40.875 L 30 -24.8125 L 37.984375 -24.8125 Z M 34 -40.875 "/></g></g><g style="fill:#000000;fill-opacity:1;"><g transform="translate(146.18086, 462.287572)"><path style="stroke:none" d="M 59.3125 -54.8125 C 59.769531 -54.414062 60.082031 -53.976562 60.25 -53.5 C 60.425781 -53.019531 60.285156 -52.492188 59.828125 -51.921875 L 47.671875 -40.796875 C 47.390625 -40.515625 47.109375 -40.375 46.828125 -40.375 C 46.660156 -40.375 46.347656 -40.515625 45.890625 -40.796875 C 44.816406 -41.921875 43.570312 -42.820312 42.15625 -43.5 C 40.738281 -44.1875 38.925781 -44.53125 36.71875 -44.53125 C 34.394531 -44.53125 32.222656 -43.921875 30.203125 -42.703125 C 28.191406 -41.484375 26.59375 -39.894531 25.40625 -37.9375 C 24.21875 -35.988281 23.625 -33.878906 23.625 -31.609375 C 23.625 -29.515625 24.203125 -27.472656 25.359375 -25.484375 C 26.523438 -23.503906 28.082031 -21.878906 30.03125 -20.609375 C 31.988281 -19.335938 34.160156 -18.703125 36.546875 -18.703125 C 38.359375 -18.703125 40.082031 -19.054688 41.71875 -19.765625 C 43.363281 -20.472656 44.8125 -21.445312 46.0625 -22.6875 C 46.34375 -22.96875 46.65625 -23.109375 47 -23.109375 C 47.28125 -23.109375 47.5625 -22.96875 47.84375 -22.6875 L 59.90625 -11.046875 C 60.363281 -10.484375 60.519531 -9.972656 60.375 -9.515625 C 60.238281 -9.066406 59.941406 -8.671875 59.484375 -8.328125 C 56.253906 -5.097656 52.738281 -2.742188 48.9375 -1.265625 C 45.144531 0.203125 41.296875 0.9375 37.390625 0.9375 C 32.910156 0.9375 28.644531 0.144531 24.59375 -1.4375 C 20.550781 -3.03125 16.941406 -5.269531 13.765625 -8.15625 C 10.597656 -11.050781 8.09375 -14.476562 6.25 -18.4375 C 4.40625 -22.40625 3.484375 -26.769531 3.484375 -31.53125 C 3.484375 -35.664062 4.332031 -39.671875 6.03125 -43.546875 C 7.726562 -47.429688 10.078125 -50.898438 13.078125 -53.953125 C 16.085938 -57.015625 19.585938 -59.453125 23.578125 -61.265625 C 27.578125 -63.085938 31.867188 -64 36.453125 -64 C 40.140625 -64 43.328125 -63.585938 46.015625 -62.765625 C 48.710938 -61.941406 51.117188 -60.832031 53.234375 -59.4375 C 55.359375 -58.050781 57.382812 -56.507812 59.3125 -54.8125 Z M 59.3125 -54.8125 "/></g></g><g style="fill:#000000;fill-opacity:1;"><g transform="translate(221.980389, 462.287572)"><path style="stroke:none" d="M 26.515625 -18.109375 L 53.109375 -18.109375 C 53.617188 -18.109375 54.054688 -17.953125 54.421875 -17.640625 C 54.796875 -17.328125 54.984375 -16.859375 54.984375 -16.234375 L 54.984375 -2.046875 C 54.984375 -1.640625 54.8125 -1.195312 54.46875 -0.71875 C 54.132812 -0.238281 53.679688 0 53.109375 0 L 8.84375 0 C 7.59375 0 6.96875 -0.625 6.96875 -1.875 L 6.96875 -61.1875 C 6.96875 -61.695312 7.132812 -62.132812 7.46875 -62.5 C 7.8125 -62.875 8.269531 -63.0625 8.84375 -63.0625 L 24.46875 -63.0625 C 24.925781 -63.0625 25.378906 -62.890625 25.828125 -62.546875 C 26.285156 -62.203125 26.515625 -61.75 26.515625 -61.1875 Z M 26.515625 -18.109375 "/></g></g><g style="fill:#000000;fill-opacity:1;"><g transform="translate(295.910424, 462.287572)"><path style="stroke:none" d="M 44.53125 -61.1875 L 65.609375 -1.875 C 66.003906 -0.625 65.632812 0 64.5 0 L 48.1875 0 C 46.820312 0 45.882812 -0.625 45.375 -1.875 L 43.09375 -9.171875 L 24.90625 -9.171875 L 22.609375 -1.875 C 22.097656 -0.625 21.160156 0 19.796875 0 L 3.5625 0 C 2.375 0 1.976562 -0.625 2.375 -1.875 L 23.453125 -61.1875 C 23.566406 -61.644531 23.835938 -62.070312 24.265625 -62.46875 C 24.691406 -62.863281 25.128906 -63.0625 25.578125 -63.0625 L 42.40625 -63.0625 C 42.863281 -63.0625 43.300781 -62.863281 43.71875 -62.46875 C 44.144531 -62.070312 44.414062 -61.644531 44.53125 -61.1875 Z M 34 -40.875 L 30 -24.8125 L 37.984375 -24.8125 Z M 34 -40.875 "/></g></g><g style="fill:#000000;fill-opacity:1;"><g transform="translate(377.743323, 462.287572)"><path style="stroke:none" d="M 6.890625 -1.875 L 6.890625 -61.1875 C 6.890625 -61.695312 7.039062 -62.132812 7.34375 -62.5 C 7.65625 -62.875 8.125 -63.0625 8.75 -63.0625 L 37.140625 -63.0625 C 41.046875 -63.0625 44.554688 -62.125 47.671875 -60.25 C 50.785156 -58.382812 53.234375 -55.890625 55.015625 -52.765625 C 56.804688 -49.648438 57.703125 -46.195312 57.703125 -42.40625 C 57.703125 -38.613281 56.796875 -35.113281 54.984375 -31.90625 C 53.171875 -28.707031 50.765625 -26.203125 47.765625 -24.390625 L 59.90625 -1.875 C 60.082031 -1.300781 60 -0.84375 59.65625 -0.5 C 59.320312 -0.164062 58.925781 0 58.46875 0 L 41.21875 0 C 40.65625 0 40.117188 -0.179688 39.609375 -0.546875 C 39.097656 -0.921875 38.785156 -1.363281 38.671875 -1.875 L 29.65625 -19.890625 L 27.1875 -19.890625 L 27.1875 -1.875 C 27.1875 -0.625 26.507812 0 25.15625 0 L 8.75 0 C 7.507812 0 6.890625 -0.625 6.890625 -1.875 Z M 38.25 -41.984375 C 38.25 -43.234375 37.796875 -44.378906 36.890625 -45.421875 C 35.984375 -46.472656 34.875 -47 33.5625 -47 L 27.03125 -47 L 27.03125 -36.96875 L 33.5625 -36.96875 C 34.875 -36.96875 35.984375 -37.488281 36.890625 -38.53125 C 37.796875 -39.582031 38.25 -40.734375 38.25 -41.984375 Z M 38.25 -41.984375 "/></g></g><g style="fill:#000000;fill-opacity:1;"><g transform="translate(453.882754, 462.287572)"><path style="stroke:none" d="M 44.53125 -61.1875 L 65.609375 -1.875 C 66.003906 -0.625 65.632812 0 64.5 0 L 48.1875 0 C 46.820312 0 45.882812 -0.625 45.375 -1.875 L 43.09375 -9.171875 L 24.90625 -9.171875 L 22.609375 -1.875 C 22.097656 -0.625 21.160156 0 19.796875 0 L 3.5625 0 C 2.375 0 1.976562 -0.625 2.375 -1.875 L 23.453125 -61.1875 C 23.566406 -61.644531 23.835938 -62.070312 24.265625 -62.46875 C 24.691406 -62.863281 25.128906 -63.0625 25.578125 -63.0625 L 42.40625 -63.0625 C 42.863281 -63.0625 43.300781 -62.863281 43.71875 -62.46875 C 44.144531 -62.070312 44.414062 -61.644531 44.53125 -61.1875 Z M 34 -40.875 L 30 -24.8125 L 37.984375 -24.8125 Z M 34 -40.875 "/></g></g><g style="fill:#000000;fill-opacity:1;"><g transform="translate(535.717168, 462.287572)"><path style="stroke:none" d=""/></g></g><g style="fill:#000000;fill-opacity:1;"><g transform="translate(335.921729, 519.752312)"><path style="stroke:none" d="M 12.59375 -37.0625 L 18.453125 -23.859375 L 24.21875 -37.0625 C 24.457031 -37.4375 24.617188 -37.648438 24.703125 -37.703125 C 24.785156 -37.753906 24.945312 -37.796875 25.1875 -37.828125 L 36.453125 -37.828125 C 36.722656 -37.828125 36.859375 -37.707031 36.859375 -37.46875 C 36.859375 -37.332031 36.738281 -37.113281 36.5 -36.8125 L 24.46875 -14.578125 L 24.46875 -1.125 C 24.46875 -0.375 24.0625 0 23.25 0 L 13.40625 0 C 12.65625 0 12.28125 -0.375 12.28125 -1.125 L 12.28125 -14.6875 L 0.3125 -36.8125 C 0.101562 -37.082031 0 -37.300781 0 -37.46875 C 0 -37.707031 0.117188 -37.828125 0.359375 -37.828125 L 11.625 -37.828125 C 11.863281 -37.796875 12.023438 -37.753906 12.109375 -37.703125 C 12.191406 -37.648438 12.351562 -37.4375 12.59375 -37.0625 Z M 12.59375 -37.0625 "/></g></g></g></g></g></g></svg>